# xmcd
#
# Track frame offsets: 
#        150
#        23074
#        37535
#        54484
#        68683
#        87595
#        113081
#        129143
#        148079
#        165603
#        181102
#        199764
#        220525
#        226837
#
# Disc length: 3400 seconds
#
# Revision: 0
# Processed by: cddbd v1.5.2PL0 Copyright (c) Steve Scherf et al.
# Submitted via: ExactAudioCopyFreeDBPlugin 1.0
#
DISCID=ab0d460e
DTITLE=Aimee Mann - Bachelor No. 2
DYEAR=1999
DGENRE=
TTITLE0=How am I different
TTITLE1=Nothing is good enough
TTITLE2=Red Vines
TTITLE3=The fall of the World's own optimist
TTITLE4=Satellite
TTITLE5=Deathly
TTITLE6=Ghost World
TTITLE7=Calling it quits
TTITLE8=Susan
TTITLE9=Backfire
TTITLE10=It Takes all kinds
TTITLE11=Save me
TTITLE12=Just like anyone
TTITLE13=You do
EXTD=
EXTT0=
EXTT1=
EXTT2=
EXTT3=
EXTT4=
EXTT5=
EXTT6=
EXTT7=
EXTT8=
EXTT9=
EXTT10=
EXTT11=
EXTT12=
EXTT13=
PLAYORDER=
